<?xml version="1.0" encoding="utf-8" ?>
<svg xmlns="http://www.w3.org/2000/svg" width="100" height="100">
	<!-- Identical to "button_audio_disable" apart from CSS changes -->
	
	<style>	
	circle {
		fill: #66668b;
		stroke: #56567b;
		stroke-width: 6;
	}
	
	path {
		fill: #eeeeef;
		stroke-linecap: round;
		stroke-linejoin: round;
	}
	
	g#soundWaves {
		stroke: #eeeeef;
		stroke-width: 10;
		stroke-linecap: round;
		stroke-linejoin: round;
	}
	
	g#cross {
		stroke: #00cb1f16;
		stroke-width: 3;
	}
	</style>
	
	
	<defs>
		<!-- Clips the red cross lines to just within the background fill (but not overlapping the stroke) -->
		<!-- Ie. The ends of the lines will be curved against the inside of the filled circle -->
		<clipPath id="crossClip" x="0" y="0" width="100" height="100">
			<circle cx="50" cy="50" r="44" />
		</clipPath>
	</defs>
	
	
	<circle cx="50" cy="50" r="47" />
	
	<g transform="translate(15, 15)">
		<svg width="70" height="70" viewBox="0 0 370 260">
			<g transform="translate(5, 5)">
				
				<path d="M0,75 L75,75 L175,0 Q190,125 175,250 L75,175 L0,175 Z" />
				
				<g id="soundWaves" transform="translate(230, 125)">
					<line x1="0" y1="0" x2="130" y2="-0" />
					<line x1="0" y1="-45" x2="130" y2="-45" transform="rotate(-25, 0, -50)" />
					<line x1="0" y1="45" x2="130" y2="45" transform="rotate(25 0, 50)" />
				</g>
			</g>
		</svg>
	</g>
	
	<g id="cross" clip-path="url(#crossClip)">
		<line x1="0" y1="0" x2="100" y2="100" />
		<line x1="0" y1="100" x2="100" y2="0" />
	</g>
</svg>
